<?xml version="1.0" encoding="UTF-8"?>
<svg id="Layer_1" data-name="Layer 1" xmlns="http://www.w3.org/2000/svg" viewBox="0 0 225.66 214.6">
  <path d="M174.45,151.52c1.99.95,5.38-1.15,6.75,2.38,1.63,4.19-10.86,4.2-17.77-1.71-4.51-3.86-8.5-7.48-12.54-11.63-4.89-5.01-15.81-14.91-22.18-8.1-6.04,6.45,6.04,17.72,10.76,22.44,19.62,19.63,13.83,30.98,27.14,42.98,10.46,9.43,23.27,11.21,21.54,15.73-.38,1-2.81,1.28-3.85.75-18.64-9.49-24.33-12.16-33.28-31.46-5.1,1-10.79,1.35-15.49-1.13s-6.64-7.99-8.43-12.38c-7.06-4.5-12.22-11.7-7.56-20.11l-39.26-26.1c-5.35-3.56-3.46-11.06-.5-15.31l21.4-30.74c2.73-3.91,8.63-3.58,12.27-1.05l41.82,29.02c5.69.12,12.48-.87,17.52,2.22,9.13,5.6,17.53,10.95,26.28,17.06,5.48,3.83,9.46,10.38,11.03,16.93l6.38,26.61c3.61,15.06,10.96,19.28,8.79,22.87-.39.64-3.03.32-3.56-.29-5.27-6.21-8.61-15.22-10.55-23.26l-6.25-25.9c-1.29-5.35-4.76-10.43-9.34-13.41l-23.02-15.01c-3.49-2.28-8.25-3.14-12.57-2.95-1.18,5.14-3.77,8.94-7.19,13.3l19.41,10.93c3.81,2.15,3.39,6.15,3.64,9.77.21,3.05.13,4.98-1.4,7.56ZM143.05,128.39l12.06-17.3-44.26-30.52c-.89-.61-3.06-1.4-4.03-1.29s-2.42,1.58-3.1,2.58l-21.15,30.78c-1.46,2.12-.31,6.09,1.76,7.45l40.57,26.51c-3.15-7.81-3.62-13.67,1.13-18.11s10.8-4.49,17.01-.1ZM171.37,151.51l-.62-12.43-19.5-11.04c-.92-.52-3.71,1.78-3.11,2.49,4.32,5.1,16.09,17.13,23.24,20.99ZM141.49,164.6l-6.97-7.46c-4.03-1.42-6.65-2.76-11.04-5.13-1.35,1.83-1.26,6.11.71,8.26,4.53,4.94,11.09,6.74,17.3,4.33ZM149.49,177.4l-4.27-7.76-13.1.94c2.82,6.15,9.58,10.64,17.37,6.83Z"/>
  <path d="M12.63,198.2l45.55.05c4.05,0,7.68-4.26,7.68-8.11v-29.21c0-.94,1.81-2.79,2.72-2.62s2.24,1.88,2.24,2.83l-.1,28.89c-.03,7.41-6.28,13.03-13.47,13.03H13.26C4.6,203.08,0,196.3,0,188.11L.13,12.47C.13,4.79,7.65,0,14.03,0l43.24.05c7.52,0,13.51,5.39,13.51,13.85l-.05,132.44c0,1.52-1.43,2.31-2.1,2.47s-2.78-.82-2.78-2.35l.05-130.73c0-5.11-1.85-10.82-7.16-10.83l-44.56-.1c-5.49-.01-9.45,3.87-9.45,9.56l-.05,174.74c0,4.58,2.91,9.1,7.94,9.1Z"/>
  <path d="M54.72,92.65l-35.6.31c-1.17.01-3.52-1.82-3.52-3v-27.42c-.01-1.15,2.36-3.18,3.48-3.17l35.56.31.08,32.97ZM20.16,64.13v5.45s30.3.02,30.3.02v-5.45s-30.3-.02-30.3-.02ZM49.72,88.18c1.19-1.1,1.15-6.14-.34-6.2l-28.18.06c-1.53.81-1.52,5.63.02,6.22l28.5-.07Z"/>
  <path d="M46.88,151.8l38.01.13c1.09,0,2.88,1.19,3.35,1.82.58.77-1.38,3.15-2.53,3.16l-35.1.17c-4.32,9.22-13.21,13.32-21.39,9.92-8.6-3.57-13.44-12.44-9.55-21.33,3-6.85,9.75-11.46,17-10.72s13.89,6.27,14.58,13.84c-1.03.5-4.52,1.36-5.21.58l-3.23-3.64c-3.5-3.94-9.33-3.92-12.92-1.32-4.28,3.11-5.09,8.62-2.05,12.76,2.8,3.81,8.06,5.51,12.85,2.56,2.51-1.55,4.26-4.15,6.21-7.94Z"/>
  <path d="M106.5,1.84c18.48,25.4,1.28,52.74-3.39,50.14-.69-.39-1.2-2.94-.32-3.9,10.24-11.15,9.55-32.88-.25-43.16-.82-.86-.14-3.96.58-4.06.88-.12,2.81.19,3.38.98Z"/>
  <path d="M93.63,44.34c-3.75-3.08,12.22-14.58-.2-31.61-.5-.69-.63-2.47-.36-3.23s3.03-1.3,3.58-.58c13.07,16.99,1.33,38.99-3.02,35.42Z"/>
  <circle cx="35.61" cy="31.78" r="6.71"/>
  <path d="M84.57,37.42c-3.5-1.85,7.14-9.71-.15-18.26-.65-.77-.66-2.8-.28-3.49s2.74-.98,3.33-.32c7.78,8.61,2.29,24.82-2.9,22.07Z"/>
</svg>