<?xml version="1.0" encoding="UTF-8"?>
<svg id="Layer_1" data-name="Layer 1" xmlns="http://www.w3.org/2000/svg" viewBox="0 0 219.14 181">
  <path d="M0,168.36l.05-56.1c0-6.81,6.46-11.7,12.25-11.85,5.71-.15,12.47,4.05,13.16,10.71.69,6.66.46,12.87.48,20.18l38.48-.07,7.98-4.7,7.72-16.61c-5.52-5.5-4.71-12.83-1.86-19.88-16.95-6.02-22.62-18.91-18.61-35.9-4.54-3.54-6.85-8.62-4.91-14.27,3.93-11.43,9.08-22.53,17.53-31.23,6.72-6.92,16.87-11.09,26.15-7.06l112.29,48.76c8.04,3.49,9.36,15.15,7.91,22.34-1.64,8.15-5.84,13.82-12.64,17.37-2.33,11.97-7.93,22.85-16.68,30.23-9.45,7.98-20.05,8.47-30.68,3.95l-46.12-19.61c-3.7,7.79-9,12.93-17.17,12.96-1.97,6.09-7.4,11.83-8.45,17.6-.98,5.41.2,10.23-4.11,14.29-4.81,4.53-9.33,2.43-15.34,1.98-13.73-1.03-27.57-.33-41.5-.44l-.29,18.06c-.11,6.65-6.7,11.71-12.49,11.93C6.67,181.23,0,176.09,0,168.36ZM156.01,77.23l8.9-12.03c7.14-9.65,17.33-14.9,29.58-17.15L101.28,7.52c-10.3-4.48-19.85-3.29-27.5,5.89-6.94,8.32-12.03,18.68-15.1,29.72-.73,2.6,1.3,6.03,3.87,7.14l77.34,33.54c5.73,2.48,12.65-3.12,16.13-6.58ZM207.16,84.13c7.79-6.54,10.42-18.85,4.44-26.87-4.09-5.47-12.05-5.66-17.93-4.45,11.77,9.35,11.84,17.1,13.49,31.32ZM179.49,121.01c9.47-4.19,15.31-12.22,18.94-21.25,10.48-26.08-2.86-46.56-13.15-43.97-15.66,3.93-20.75,21.8-31.52,29.25-4.16,10.51-3.31,23.61,4.46,32.56,5.06,5.84,13.98,6.63,21.27,3.41ZM147.83,88.22c-5.3.59-8.4.47-12.1-1.16l-71.83-31.22c-2.19,8.75-1.01,21.92,7.88,25.75l79.56,34.3c-4.53-8.84-5.33-18.1-3.52-27.68ZM99.68,112.33c4.54-1,7.18-6.01,8.99-9.46l-26.08-11.11c-1.93,3.8-3.66,8.58-.91,12.56,3.54,5.14,11.12,9.53,18,8.01ZM21.61,150.97c-4.79-2.54-6.17-6.05-6.09-10.43.07-3.9,2.14-7.14,6.03-9.62l-.29-18.72c-.07-4.62-5.81-7.54-8.92-7.24-4.83.47-7.94,4.14-7.93,9.04l.12,53.97c.01,5.18,4.01,8.63,8.75,8.5,3.52-.1,7.97-3.08,8.05-7.83l.28-17.67ZM83.6,130.68l7.65-14.24-7.92-3.82-6.16,14.35,6.43,3.72ZM82.52,139.89c0-4.6-3.73-8.34-8.34-8.34s-8.34,3.73-8.34,8.34,3.73,8.34,8.34,8.34,8.34-3.73,8.34-8.34ZM62.55,146.47l-.64-10.68-40.14.13c-2.58,1.76-2.45,8.41.13,10.42l40.65.14Z"/>
  <path d="M179.43,105.05c-2.3,1.54-6.98,1.7-9.38.57-8.93-4.19-8.35-23.24,3.45-31.65,2.99-2.13,7.16-2.48,10.53-.97,2.37,1.06,4.94,4.61,5.64,8.04,1.9,9.33-1.98,18.48-10.24,24.02ZM177.44,101.14c6.96-4.99,9.85-12.79,7.69-20.56-.41-1.46-2.85-3.86-4.26-4.1-1.23-.21-3.83.52-5.04,1.41-9.19,6.75-9.24,21.13-4,23.66,1.07.52,4.63.29,5.61-.41Z"/>
</svg>