<?xml version="1.0" encoding="UTF-8"?>
<svg id="Layer_1" data-name="Layer 1" xmlns="http://www.w3.org/2000/svg" viewBox="0 0 143.48 199.55">
  <path d="M105.73,4.64l-95.66.03c-3.25,0-5.7,2.25-5.7,5.78v172.71c0,2.54,2.19,5.42,4.71,5.42l40.81.03c.89,0,2.55,1.39,2.52,2.14s-1.74,2.45-2.52,2.45l-39.77.02C4.32,193.23,0,188.96,0,183.16V9.33C0,5.25,3.89.07,8.14.06l101.51-.06,33.8,35.58.03,147.64c0,3.43-2.12,6.67-4,8.23-2.4,1.98-7.48,2.31-9.93,1.23-.66-.29-1.69-2.46-1.09-2.77,5.7-2.91,4.88,0,8.84-2.66,1.02-.68,1.58-3.26,1.58-5.03V38.87s-24.89-.21-24.89-.21c-4.87-.04-8.15-3.46-8.17-8.35l-.09-25.66ZM114.22,34.34l21.58-.38-25.48-26.72-.37,23.32c-.02,1.53,2.47,3.53,4.27,3.79Z"/>
  <path d="M92.58,172.74l-10.3,24.79c-.23.55-1.37,1.74-1.92,1.83-.73.13-2.35-1.04-2.72-1.71l-4.92-8.97-11.27,3.71c-.51.17-1.79.18-2.29.11-.67-.1-1.11-2.16-.84-2.81l11.42-28.21c-8.7-9.99-11.38-22.52-6.17-34.94,4.33-10.34,14.69-18.7,27.45-19.24s24.41,7.33,29.45,18.03c5.78,12.27,3.44,25.57-5.63,36.16l10.06,28.33c.27.75-.35,2.83-.86,2.93s-1.92.13-2.42-.06l-10.05-3.95-5.2,8.72c-.35.59-1.47,1.62-1.93,1.99s-2.24-.77-2.52-1.53l-9.33-25.2ZM119.45,139.46c0-15.04-12.19-27.24-27.24-27.24s-27.24,12.19-27.24,27.24,12.19,27.24,27.24,27.24,27.24-12.19,27.24-27.24ZM79.93,192.39l7.89-20.61c-5.46-1.89-8.86-3.42-14.78-6.82l-8.75,21.53,10.16-2.48,5.48,8.37ZM110.01,183.78l9.29,3.11-7.81-21.68-14.49,6.83,7.35,20.2,5.66-8.47Z"/>
  <rect x="24.62" y="63.34" width="92.34" height="4.83"/>
  <rect x="24.75" y="83.88" width="91.84" height="4.81"/>
  <path d="M81.75,47.66l-54.87.07c-.81,0-2.26-1.37-2.37-2-.14-.8,1.7-2.65,2.71-2.65h54.56c.57,0,2.07,1.37,2.35,1.88.37.68-1.5,2.7-2.39,2.7Z"/>
  <path d="M57.56,109.2h-30.23c-1.04-.01-2.85-1.59-2.84-2.4s1.82-2.4,2.68-2.4l30.31.1c.84,0,2.33,1.65,2.69,2.29s-1.69,2.42-2.61,2.42Z"/>
  <path d="M78.9,141.57c-.67-.68-.58-3.25.19-3.75s2.9,0,3.53.71l6.19,6.91,13.28-14.94c.46-.52,2.34-1.05,3.01-1.03.84.03,1.64,2.59.93,3.39l-17.06,18.88-10.07-10.17Z"/>
</svg>